<?xml version="1.0" ?><!DOCTYPE svg  PUBLIC '-//W3C//DTD SVG 1.1//EN'  'http://www.w3.org/Graphics/SVG/1.1/DTD/svg11.dtd'><svg height="512px" style="enable-background:new 0 0 512 512;" version="1.1" viewBox="0 0 512 512" width="512px" xml:space="preserve" xmlns="http://www.w3.org/2000/svg" xmlns:xlink="http://www.w3.org/1999/xlink"><g id="_x35_6-linkedin"><g><g><rect height="328.97" style="fill:#1B80E4;" width="106.716" x="17.397" y="166.28"/><path d="M414.789,170.138c-1.133-0.355-2.207-0.743-3.396-1.078c-1.438-0.327-2.865-0.6-4.328-0.833     c-5.662-1.139-11.875-1.946-19.148-1.946c-62.211,0-101.678,45.372-114.674,62.894V166.28H166.526v328.97h106.716V315.813     c0,0,80.643-112.628,114.674-29.911V495.25h106.688V273.257C494.604,223.549,460.629,182.13,414.789,170.138L414.789,170.138z      M414.789,170.138" style="fill:#1B80E4;"/><path d="M121.789,69.085c0,28.909-23.373,52.337-52.195,52.337c-28.824,0-52.196-23.429-52.196-52.337     c0-28.903,23.372-52.335,52.196-52.335C98.416,16.75,121.789,40.182,121.789,69.085L121.789,69.085z M121.789,69.085" style="fill:#1B80E4;"/></g></g></g><g id="Layer_1"/></svg>