<?xml version="1.0" ?><!DOCTYPE svg  PUBLIC '-//W3C//DTD SVG 1.1//EN'  'http://www.w3.org/Graphics/SVG/1.1/DTD/svg11.dtd'><svg height="512px" style="enable-background:new 0 0 512 512;" version="1.1" viewBox="0 0 512 512" width="512px" xml:space="preserve" xmlns="http://www.w3.org/2000/svg" xmlns:xlink="http://www.w3.org/1999/xlink"><g id="_x39_2-icloud"><g><g><path d="M389.172,211.142c0.68-4.904,1.041-9.899,1.041-14.954c0-57.721-46.824-104.672-104.393-104.672     c-36.949,0-71.07,19.945-89.533,51.086c-9.303-4.102-19.356-6.227-29.761-6.227c-41.101,0-74.564,33.559-74.564,74.767     c0,1.528,0.032,3.018,0.149,4.481c-43.519,12.655-74.714,53.265-74.714,100.189c0,57.715,46.823,104.673,104.392,104.673h268.424     c57.563,0,104.391-46.958,104.391-104.673C494.604,257.764,447.654,210.663,389.172,211.142L389.172,211.142z M389.172,211.142" style="fill:#2299F8;"/></g></g></g><g id="Layer_1"/></svg>