<?xml version="1.0" ?><!DOCTYPE svg  PUBLIC '-//W3C//DTD SVG 1.1//EN'  'http://www.w3.org/Graphics/SVG/1.1/DTD/svg11.dtd'><svg height="512px" style="enable-background:new 0 0 512 512;" version="1.1" viewBox="0 0 512 512" width="512px" xml:space="preserve" xmlns="http://www.w3.org/2000/svg" xmlns:xlink="http://www.w3.org/1999/xlink"><g id="_x34_-youtube_x2C__video"><g><g><path d="M474.322,123.216c-12.943-23.089-26.996-27.331-55.594-28.948     c-28.576-1.945-100.426-2.752-162.666-2.752c-62.367,0-134.247,0.807-162.793,2.719c-28.538,1.65-42.619,5.864-55.678,28.981     c-13.336,23.06-20.194,62.776-20.194,132.696v0.241c0,69.615,6.858,109.629,20.194,132.447     c13.059,23.091,27.107,27.277,55.654,29.218c28.57,1.678,100.45,2.667,162.817,2.667c62.24,0,134.09-0.989,162.693-2.634     c28.604-1.94,42.646-6.133,55.594-29.218c13.449-22.82,20.254-62.832,20.254-132.455v-0.239     C494.604,185.992,487.799,146.276,474.322,123.216L474.322,123.216z M474.322,123.216" style="fill:#F84437;"/><path d="M196.352,345.72V166.282L345.475,256L196.352,345.72z M196.352,345.72" style="fill:#FCFCFC;"/></g></g></g><g id="Layer_1"/></svg>